<?xml version="1.0" encoding="UTF-8" standalone="no"?>
<!DOCTYPE svg PUBLIC "-//W3C//DTD SVG 1.1//EN"
 "http://www.w3.org/Graphics/SVG/1.1/DTD/svg11.dtd">
<!-- Generated by graphviz version 2.40.1 (20161225.0304)
 -->
<!-- Title: dependencies Pages: 1 -->
<svg width="773pt" height="284pt"
 viewBox="0.00 0.00 773.00 284.00" xmlns="http://www.w3.org/2000/svg" xmlns:xlink="http://www.w3.org/1999/xlink">
<g id="graph0" class="graph" transform="scale(1 1) rotate(0) translate(4 280)">
<title>dependencies</title>
<polygon fill="#ffffff" stroke="transparent" points="-4,4 -4,-280 769,-280 769,4 -4,4"/>
<text text-anchor="start" x="361.5091" y="-42.4" font-family="sans-serif" font-weight="bold" font-size="14.00" fill="#000000">Legend</text>
<polygon fill="#ffffb3" stroke="transparent" points="148.5,-10 148.5,-30 168.5,-30 168.5,-10 148.5,-10"/>
<text text-anchor="start" x="172.129" y="-15.4" font-family="sans-serif" font-size="14.00" fill="#000000"> &#160;Declarations</text>
<polygon fill="#8dd3c7" stroke="transparent" points="261.5,-10 261.5,-30 281.5,-30 281.5,-10 261.5,-10"/>
<text text-anchor="start" x="285.2251" y="-15.4" font-family="sans-serif" font-size="14.00" fill="#000000"> &#160;Module</text>
<polygon fill="#80b1d3" stroke="transparent" points="347.5,-10 347.5,-30 367.5,-30 367.5,-10 347.5,-10"/>
<text text-anchor="start" x="371.2812" y="-15.4" font-family="sans-serif" font-size="14.00" fill="#000000"> &#160;Bootstrap</text>
<polygon fill="#fdb462" stroke="transparent" points="444.5,-10 444.5,-30 464.5,-30 464.5,-10 444.5,-10"/>
<text text-anchor="start" x="468.1732" y="-15.4" font-family="sans-serif" font-size="14.00" fill="#000000"> &#160;Providers</text>
<polygon fill="#fb8072" stroke="transparent" points="540.5,-10 540.5,-30 560.5,-30 560.5,-10 540.5,-10"/>
<text text-anchor="start" x="564.2258" y="-15.4" font-family="sans-serif" font-size="14.00" fill="#000000"> &#160;Exports</text>
<g id="clust1" class="cluster">
<title>cluster_MonacoEditorModule</title>
<polygon fill="none" stroke="#000000" stroke-dasharray="1,5" points="8,-70 8,-268 757,-268 757,-70 8,-70"/>
</g>
<g id="clust2" class="cluster">
<title>cluster_MonacoEditorModule_declarations</title>
<polygon fill="none" stroke="#000000" points="25,-78 25,-130 743,-130 743,-78 25,-78"/>
</g>
<g id="clust8" class="cluster">
<title>cluster_MonacoEditorModule_exports</title>
<polygon fill="none" stroke="#000000" points="16,-208 16,-260 749,-260 749,-208 16,-208"/>
</g>
<!-- MonacoDiffEditorComponent -->
<g id="node1" class="node">
<title>MonacoDiffEditorComponent</title>
<polygon fill="#ffffb3" stroke="#000000" points="734.5196,-122 549.4804,-122 549.4804,-86 734.5196,-86 734.5196,-122"/>
<text text-anchor="middle" x="642" y="-99.8" font-family="Times,serif" font-size="14.00" fill="#000000">MonacoDiffEditorComponent</text>
</g>
<!-- MonacoEditorModule -->
<g id="node5" class="node">
<title>MonacoEditorModule</title>
<polygon fill="#8dd3c7" stroke="#000000" points="330.4186,-187 327.4186,-191 306.4186,-191 303.4186,-187 189.5814,-187 189.5814,-151 330.4186,-151 330.4186,-187"/>
<text text-anchor="middle" x="260" y="-164.8" font-family="Times,serif" font-size="14.00" fill="#000000">MonacoEditorModule</text>
</g>
<!-- MonacoDiffEditorComponent&#45;&gt;MonacoEditorModule -->
<g id="edge1" class="edge">
<title>MonacoDiffEditorComponent&#45;&gt;MonacoEditorModule</title>
<path fill="none" stroke="#000000" d="M673.6698,-122.2667C673.6698,-140.5552 673.6698,-166 673.6698,-166 673.6698,-166 340.6424,-166 340.6424,-166"/>
<polygon fill="#000000" stroke="#000000" points="340.6424,-162.5001 330.6424,-166 340.6423,-169.5001 340.6424,-162.5001"/>
</g>
<!-- MonacoEditorComponent -->
<g id="node2" class="node">
<title>MonacoEditorComponent</title>
<polygon fill="#ffffb3" stroke="#000000" points="531.2007,-122 368.7993,-122 368.7993,-86 531.2007,-86 531.2007,-122"/>
<text text-anchor="middle" x="450" y="-99.8" font-family="Times,serif" font-size="14.00" fill="#000000">MonacoEditorComponent</text>
</g>
<!-- MonacoEditorComponent&#45;&gt;MonacoEditorModule -->
<g id="edge2" class="edge">
<title>MonacoEditorComponent&#45;&gt;MonacoEditorModule</title>
<path fill="none" stroke="#000000" d="M477.0334,-122.0091C477.0334,-138.0494 477.0334,-159 477.0334,-159 477.0334,-159 340.4645,-159 340.4645,-159"/>
<polygon fill="#000000" stroke="#000000" points="340.4646,-155.5001 330.4645,-159 340.4645,-162.5001 340.4646,-155.5001"/>
</g>
<!-- MonacoEditorLoaderDirective -->
<g id="node3" class="node">
<title>MonacoEditorLoaderDirective</title>
<polygon fill="#ffffb3" stroke="#000000" points="351.0938,-122 162.9062,-122 162.9062,-86 351.0938,-86 351.0938,-122"/>
<text text-anchor="middle" x="257" y="-99.8" font-family="Times,serif" font-size="14.00" fill="#000000">MonacoEditorLoaderDirective</text>
</g>
<!-- MonacoEditorLoaderDirective&#45;&gt;MonacoEditorModule -->
<g id="edge3" class="edge">
<title>MonacoEditorLoaderDirective&#45;&gt;MonacoEditorModule</title>
<path fill="none" stroke="#000000" d="M260,-122.1061C260,-122.1061 260,-140.991 260,-140.991"/>
<polygon fill="#000000" stroke="#000000" points="256.5001,-140.9909 260,-150.991 263.5001,-140.991 256.5001,-140.9909"/>
</g>
<!-- ResizedDirective -->
<g id="node4" class="node">
<title>ResizedDirective</title>
<polygon fill="#ffffb3" stroke="#000000" points="145.3991,-122 32.6009,-122 32.6009,-86 145.3991,-86 145.3991,-122"/>
<text text-anchor="middle" x="89" y="-99.8" font-family="Times,serif" font-size="14.00" fill="#000000">ResizedDirective</text>
</g>
<!-- ResizedDirective&#45;&gt;MonacoEditorModule -->
<g id="edge4" class="edge">
<title>ResizedDirective&#45;&gt;MonacoEditorModule</title>
<path fill="none" stroke="#000000" d="M104.2331,-122.0225C104.2331,-139.3734 104.2331,-163 104.2331,-163 104.2331,-163 179.4086,-163 179.4086,-163"/>
<polygon fill="#000000" stroke="#000000" points="179.4086,-166.5001 189.4086,-163 179.4086,-159.5001 179.4086,-166.5001"/>
</g>
<!-- MonacoDiffEditorComponent  -->
<g id="node6" class="node">
<title>MonacoDiffEditorComponent </title>
<polygon fill="#fb8072" stroke="#000000" points="740.519,-252 551.481,-252 551.481,-216 740.519,-216 740.519,-252"/>
<text text-anchor="middle" x="646" y="-229.8" font-family="Times,serif" font-size="14.00" fill="#000000">MonacoDiffEditorComponent </text>
</g>
<!-- MonacoEditorModule&#45;&gt;MonacoDiffEditorComponent  -->
<g id="edge5" class="edge">
<title>MonacoEditorModule&#45;&gt;MonacoDiffEditorComponent </title>
<path fill="none" stroke="#000000" stroke-dasharray="5,2" d="M330.5025,-173C433.3943,-173 612.5802,-173 612.5802,-173 612.5802,-173 612.5802,-205.698 612.5802,-205.698"/>
<polygon fill="#000000" stroke="#000000" points="609.0803,-205.698 612.5802,-215.698 616.0803,-205.698 609.0803,-205.698"/>
</g>
<!-- MonacoEditorComponent  -->
<g id="node7" class="node">
<title>MonacoEditorComponent </title>
<polygon fill="#fb8072" stroke="#000000" points="533.7009,-252 368.2991,-252 368.2991,-216 533.7009,-216 533.7009,-252"/>
<text text-anchor="middle" x="451" y="-229.8" font-family="Times,serif" font-size="14.00" fill="#000000">MonacoEditorComponent </text>
</g>
<!-- MonacoEditorModule&#45;&gt;MonacoEditorComponent  -->
<g id="edge6" class="edge">
<title>MonacoEditorModule&#45;&gt;MonacoEditorComponent </title>
<path fill="none" stroke="#000000" stroke-dasharray="5,2" d="M330.5317,-180C374.5753,-180 422.9666,-180 422.9666,-180 422.9666,-180 422.9666,-205.7181 422.9666,-205.7181"/>
<polygon fill="#000000" stroke="#000000" points="419.4667,-205.718 422.9666,-215.7181 426.4667,-205.7181 419.4667,-205.718"/>
</g>
<!-- MonacoEditorLoaderDirective  -->
<g id="node8" class="node">
<title>MonacoEditorLoaderDirective </title>
<polygon fill="#fb8072" stroke="#000000" points="350.0934,-252 157.9066,-252 157.9066,-216 350.0934,-216 350.0934,-252"/>
<text text-anchor="middle" x="254" y="-229.8" font-family="Times,serif" font-size="14.00" fill="#000000">MonacoEditorLoaderDirective </text>
</g>
<!-- MonacoEditorModule&#45;&gt;MonacoEditorLoaderDirective  -->
<g id="edge7" class="edge">
<title>MonacoEditorModule&#45;&gt;MonacoEditorLoaderDirective </title>
<path fill="none" stroke="#000000" stroke-dasharray="5,2" d="M260,-187.1061C260,-187.1061 260,-205.991 260,-205.991"/>
<polygon fill="#000000" stroke="#000000" points="256.5001,-205.9909 260,-215.991 263.5001,-205.991 256.5001,-205.9909"/>
</g>
<!-- ResizedDirective  -->
<g id="node9" class="node">
<title>ResizedDirective </title>
<polygon fill="#fb8072" stroke="#000000" points="139.8984,-252 24.1016,-252 24.1016,-216 139.8984,-216 139.8984,-252"/>
<text text-anchor="middle" x="82" y="-229.8" font-family="Times,serif" font-size="14.00" fill="#000000">ResizedDirective </text>
</g>
<!-- MonacoEditorModule&#45;&gt;ResizedDirective  -->
<g id="edge8" class="edge">
<title>MonacoEditorModule&#45;&gt;ResizedDirective </title>
<path fill="none" stroke="#000000" stroke-dasharray="5,2" d="M189.7861,-175C135.1369,-175 68.5169,-175 68.5169,-175 68.5169,-175 68.5169,-205.9775 68.5169,-205.9775"/>
<polygon fill="#000000" stroke="#000000" points="65.017,-205.9774 68.5169,-215.9775 72.017,-205.9775 65.017,-205.9774"/>
</g>
</g>
</svg>
