<?xml version="1.0" encoding="UTF-8" standalone="no"?>
<!DOCTYPE svg PUBLIC "-//W3C//DTD SVG 1.1//EN"
 "http://www.w3.org/Graphics/SVG/1.1/DTD/svg11.dtd">
<!-- Generated by graphviz version 2.44.1 (20200629.0846)
 -->
<!-- Title: dependencies Pages: 1 -->
<svg width="639pt" height="284pt"
 viewBox="0.00 0.00 639.00 284.00" xmlns="http://www.w3.org/2000/svg" xmlns:xlink="http://www.w3.org/1999/xlink">
<g id="graph0" class="graph" transform="scale(1 1) rotate(0) translate(4 280)">
<title>dependencies</title>
<polygon fill="white" stroke="transparent" points="-4,4 -4,-280 635,-280 635,4 -4,4"/>
<text text-anchor="start" x="294.51" y="-42.4" font-family="sans-serif" font-weight="bold" font-size="14.00">Legend</text>
<polygon fill="#ffffb3" stroke="transparent" points="81.5,-10 81.5,-30 101.5,-30 101.5,-10 81.5,-10"/>
<text text-anchor="start" x="105.13" y="-15.4" font-family="sans-serif" font-size="14.00"> &#160;Declarations</text>
<polygon fill="#8dd3c7" stroke="transparent" points="194.5,-10 194.5,-30 214.5,-30 214.5,-10 194.5,-10"/>
<text text-anchor="start" x="218.23" y="-15.4" font-family="sans-serif" font-size="14.00"> &#160;Module</text>
<polygon fill="#80b1d3" stroke="transparent" points="280.5,-10 280.5,-30 300.5,-30 300.5,-10 280.5,-10"/>
<text text-anchor="start" x="304.28" y="-15.4" font-family="sans-serif" font-size="14.00"> &#160;Bootstrap</text>
<polygon fill="#fdb462" stroke="transparent" points="377.5,-10 377.5,-30 397.5,-30 397.5,-10 377.5,-10"/>
<text text-anchor="start" x="401.17" y="-15.4" font-family="sans-serif" font-size="14.00"> &#160;Providers</text>
<polygon fill="#fb8072" stroke="transparent" points="473.5,-10 473.5,-30 493.5,-30 493.5,-10 473.5,-10"/>
<text text-anchor="start" x="497.23" y="-15.4" font-family="sans-serif" font-size="14.00"> &#160;Exports</text>
<g id="clust1" class="cluster">
<title>cluster_MonacoEditorModule</title>
<polygon fill="none" stroke="black" stroke-dasharray="1,5" points="8,-70 8,-268 623,-268 623,-70 8,-70"/>
</g>
<g id="clust7" class="cluster">
<title>cluster_MonacoEditorModule_exports</title>
<polygon fill="none" stroke="black" points="16,-208 16,-260 615,-260 615,-208 16,-208"/>
</g>
<g id="clust2" class="cluster">
<title>cluster_MonacoEditorModule_declarations</title>
<polygon fill="none" stroke="black" points="22,-78 22,-130 610,-130 610,-78 22,-78"/>
</g>
<!-- MonacoDiffEditorComponent -->
<g id="node1" class="node">
<title>MonacoDiffEditorComponent</title>
<polygon fill="#ffffb3" stroke="black" points="601.52,-122 416.48,-122 416.48,-86 601.52,-86 601.52,-122"/>
<text text-anchor="middle" x="509" y="-99.8" font-family="Times,serif" font-size="14.00">MonacoDiffEditorComponent</text>
</g>
<!-- MonacoEditorModule -->
<g id="node4" class="node">
<title>MonacoEditorModule</title>
<polygon fill="#8dd3c7" stroke="black" points="387.42,-187 384.42,-191 363.42,-191 360.42,-187 246.58,-187 246.58,-151 387.42,-151 387.42,-187"/>
<text text-anchor="middle" x="317" y="-164.8" font-family="Times,serif" font-size="14.00">MonacoEditorModule</text>
</g>
<!-- MonacoDiffEditorComponent&#45;&gt;MonacoEditorModule -->
<g id="edge1" class="edge">
<title>MonacoDiffEditorComponent&#45;&gt;MonacoEditorModule</title>
<path fill="none" stroke="black" d="M540.34,-122.02C540.34,-139.37 540.34,-163 540.34,-163 540.34,-163 397.36,-163 397.36,-163"/>
<polygon fill="black" stroke="black" points="397.36,-159.5 387.36,-163 397.36,-166.5 397.36,-159.5"/>
</g>
<!-- MonacoEditorComponent -->
<g id="node2" class="node">
<title>MonacoEditorComponent</title>
<polygon fill="#ffffb3" stroke="black" points="398.2,-122 235.8,-122 235.8,-86 398.2,-86 398.2,-122"/>
<text text-anchor="middle" x="317" y="-99.8" font-family="Times,serif" font-size="14.00">MonacoEditorComponent</text>
</g>
<!-- MonacoEditorComponent&#45;&gt;MonacoEditorModule -->
<g id="edge2" class="edge">
<title>MonacoEditorComponent&#45;&gt;MonacoEditorModule</title>
<path fill="none" stroke="black" d="M317,-122.11C317,-122.11 317,-140.99 317,-140.99"/>
<polygon fill="black" stroke="black" points="313.5,-140.99 317,-150.99 320.5,-140.99 313.5,-140.99"/>
</g>
<!-- MonacoEditorLoaderDirective -->
<g id="node3" class="node">
<title>MonacoEditorLoaderDirective</title>
<polygon fill="#ffffb3" stroke="black" points="218.09,-122 29.91,-122 29.91,-86 218.09,-86 218.09,-122"/>
<text text-anchor="middle" x="124" y="-99.8" font-family="Times,serif" font-size="14.00">MonacoEditorLoaderDirective</text>
</g>
<!-- MonacoEditorLoaderDirective&#45;&gt;MonacoEditorModule -->
<g id="edge3" class="edge">
<title>MonacoEditorLoaderDirective&#45;&gt;MonacoEditorModule</title>
<path fill="none" stroke="black" d="M153.93,-122.02C153.93,-139.37 153.93,-163 153.93,-163 153.93,-163 236.42,-163 236.42,-163"/>
<polygon fill="black" stroke="black" points="236.42,-166.5 246.42,-163 236.42,-159.5 236.42,-166.5"/>
</g>
<!-- MonacoDiffEditorComponent  -->
<g id="node5" class="node">
<title>MonacoDiffEditorComponent </title>
<polygon fill="#fb8072" stroke="black" points="606.52,-252 417.48,-252 417.48,-216 606.52,-216 606.52,-252"/>
<text text-anchor="middle" x="512" y="-229.8" font-family="Times,serif" font-size="14.00">MonacoDiffEditorComponent </text>
</g>
<!-- MonacoEditorModule&#45;&gt;MonacoDiffEditorComponent  -->
<g id="edge4" class="edge">
<title>MonacoEditorModule&#45;&gt;MonacoDiffEditorComponent </title>
<path fill="none" stroke="black" stroke-dasharray="5,2" d="M387.55,-175C431.18,-175 478.91,-175 478.91,-175 478.91,-175 478.91,-205.98 478.91,-205.98"/>
<polygon fill="black" stroke="black" points="475.41,-205.98 478.91,-215.98 482.41,-205.98 475.41,-205.98"/>
</g>
<!-- MonacoEditorComponent  -->
<g id="node6" class="node">
<title>MonacoEditorComponent </title>
<polygon fill="#fb8072" stroke="black" points="399.7,-252 234.3,-252 234.3,-216 399.7,-216 399.7,-252"/>
<text text-anchor="middle" x="317" y="-229.8" font-family="Times,serif" font-size="14.00">MonacoEditorComponent </text>
</g>
<!-- MonacoEditorModule&#45;&gt;MonacoEditorComponent  -->
<g id="edge5" class="edge">
<title>MonacoEditorModule&#45;&gt;MonacoEditorComponent </title>
<path fill="none" stroke="black" stroke-dasharray="5,2" d="M317,-187.11C317,-187.11 317,-205.99 317,-205.99"/>
<polygon fill="black" stroke="black" points="313.5,-205.99 317,-215.99 320.5,-205.99 313.5,-205.99"/>
</g>
<!-- MonacoEditorLoaderDirective  -->
<g id="node7" class="node">
<title>MonacoEditorLoaderDirective </title>
<polygon fill="#fb8072" stroke="black" points="216.09,-252 23.91,-252 23.91,-216 216.09,-216 216.09,-252"/>
<text text-anchor="middle" x="120" y="-229.8" font-family="Times,serif" font-size="14.00">MonacoEditorLoaderDirective </text>
</g>
<!-- MonacoEditorModule&#45;&gt;MonacoEditorLoaderDirective  -->
<g id="edge6" class="edge">
<title>MonacoEditorModule&#45;&gt;MonacoEditorLoaderDirective </title>
<path fill="none" stroke="black" stroke-dasharray="5,2" d="M246.68,-175C180.61,-175 91.82,-175 91.82,-175 91.82,-175 91.82,-205.98 91.82,-205.98"/>
<polygon fill="black" stroke="black" points="88.32,-205.98 91.82,-215.98 95.32,-205.98 88.32,-205.98"/>
</g>
</g>
</svg>
